####
#
# OBJ File Generated by Meshlab
#
####
# Object Statue1.obj
#
# Vertices: 102
# Faces: 200
#
####
mtllib ./Statue1.obj.mtl

vn 0.068674 0.094769 -0.993128
v 0.027579 2.045540 0.015020 0.749020 0.749020 0.749020
vn 0.055373 -0.050487 -0.997189
v 0.003617 2.232690 0.044975 0.749020 0.749020 0.749020
vn -0.208833 0.672816 -0.709724
v -0.437485 2.033750 -0.033952 0.749020 0.749020 0.749020
vn -0.724328 0.689175 -0.019658
v -0.689520 1.987810 0.199599 0.749020 0.749020 0.749020
vn -0.598348 0.748853 0.284953
v -0.228573 2.067740 0.361616 0.749020 0.749020 0.749020
vn 0.352282 -0.265406 -0.897472
v 0.573199 1.640510 -0.086312 0.749020 0.749020 0.749020
vn 0.355122 0.713453 -0.604047
v 0.484420 2.002800 -0.002548 0.749020 0.749020 0.749020
vn 0.475474 0.231195 0.848807
v 0.397426 1.703890 0.736378 0.749020 0.749020 0.749020
vn 0.800783 0.162624 0.576455
v 0.637039 1.662850 0.505727 0.749020 0.749020 0.749020
vn -0.938712 0.341823 -0.044465
v -0.372465 3.114030 0.293064 0.749020 0.749020 0.749020
vn -0.128826 0.870004 -0.475917
v -0.040296 3.334260 0.081472 0.749020 0.749020 0.749020
vn -0.611510 0.638716 -0.467008
v -0.245318 3.243850 0.081271 0.749020 0.749020 0.749020
vn -0.354654 0.135445 -0.925135
v -0.151532 2.972170 -0.123164 0.749020 0.749020 0.749020
vn -0.918689 -0.052129 -0.391527
v -0.367791 2.831460 0.102940 0.749020 0.749020 0.749020
vn -0.945830 -0.040780 0.322092
v -0.384786 2.782130 0.578845 0.749020 0.749020 0.749020
vn -0.691236 0.661909 0.289948
v -0.274132 3.240390 0.460288 0.749020 0.749020 0.749020
vn -0.206989 0.915889 0.343953
v -0.079096 3.339310 0.491740 0.749020 0.749020 0.749020
vn 0.258995 0.273105 -0.926464
v 0.125819 3.048830 -0.115163 0.749020 0.749020 0.749020
vn -0.968773 -0.207159 -0.136250
v -0.279676 2.491040 0.150580 0.749020 0.749020 0.749020
vn -0.402942 0.480326 0.779054
v -0.131078 3.061920 0.778824 0.749020 0.749020 0.749020
vn 0.282165 0.956908 0.068623
v 0.115323 3.354010 0.333022 0.749020 0.749020 0.749020
vn 0.409368 0.777997 -0.476590
v 0.156954 3.304290 0.094553 0.749020 0.749020 0.749020
vn -0.843386 -0.464181 0.270623
v -0.205757 2.353800 0.704230 0.749020 0.749020 0.749020
vn 0.317631 0.802924 0.504403
v 0.129936 3.274380 0.563539 0.749020 0.749020 0.749020
vn -0.852002 -0.165123 0.496818
v -0.100347 2.195010 0.487649 0.749020 0.749020 0.749020
vn -0.463715 -0.183601 0.866752
v -0.110096 2.442460 0.879653 0.749020 0.749020 0.749020
vn -0.418644 0.139494 0.897373
v -0.123219 2.788640 0.874516 0.749020 0.749020 0.749020
vn 0.778850 0.543255 0.313476
v 0.306770 3.174240 0.503521 0.749020 0.749020 0.749020
vn 0.827142 0.542837 -0.145483
v 0.321459 3.216990 0.226019 0.749020 0.749020 0.749020
vn -0.423704 -0.200433 -0.883347
v -0.186643 2.640370 -0.059278 0.749020 0.749020 0.749020
vn -0.274803 0.693920 0.665551
v -0.167662 2.006500 0.632757 0.749020 0.749020 0.749020
vn 0.100849 0.546609 0.831293
v 0.088598 1.922720 0.738290 0.749020 0.749020 0.749020
vn 0.557830 -0.116818 0.821693
v 0.460567 1.401030 0.693099 0.749020 0.749020 0.749020
vn 0.248848 0.458903 -0.852926
v 0.078891 0.561708 0.213416 0.749020 0.749020 0.749020
vn -0.303129 0.763126 -0.570746
v -0.187704 0.436608 0.149120 0.749020 0.749020 0.749020
vn -0.302100 0.797000 -0.522998
v -0.315055 0.226089 -0.280697 0.749020 0.749020 0.749020
vn 0.266219 0.549058 0.792252
v 0.118091 3.085610 0.771999 0.749020 0.749020 0.749020
vn 0.487922 -0.229967 -0.842049
v 0.208031 2.588480 -0.029171 0.749020 0.749020 0.749020
vn -0.514588 0.628386 0.583378
v -0.460435 1.899430 0.570161 0.749020 0.749020 0.749020
vn -0.415770 0.226698 0.880763
v -0.357105 1.680120 0.777025 0.749020 0.749020 0.749020
vn 0.473084 -0.209887 0.855651
v 0.337800 0.954551 0.649695 0.749020 0.749020 0.749020
vn 0.021254 0.909521 -0.415114
v 0.007803 0.278154 -0.237205 0.749020 0.749020 0.749020
vn -0.888283 -0.292767 -0.353895
v -0.832483 0.044400 -0.053804 0.749020 0.749020 0.749020
vn -0.055807 -0.998436 -0.003341
v 0.348615 0.098349 0.334003 0.749020 0.749020 0.749020
vn -0.723280 0.690539 0.004687
v -0.714480 0.196689 0.148687 0.749020 0.749020 0.749020
vn 0.920948 -0.368855 0.125703
v 0.475799 0.942627 0.525577 0.749020 0.749020 0.749020
vn 0.910844 -0.394314 0.121981
v 0.655508 1.308040 0.452404 0.749020 0.749020 0.749020
vn -0.757040 0.446177 -0.477301
v -0.263291 2.161150 0.078265 0.749020 0.749020 0.749020
vn 0.453256 0.793609 -0.405887
v 0.712694 0.132241 -0.095759 0.749020 0.749020 0.749020
vn 0.322616 -0.445913 -0.834914
v 0.130455 0.047498 -0.508713 0.749020 0.749020 0.749020
vn 0.589221 0.306992 0.747379
v 0.474925 0.266027 0.517318 0.749020 0.749020 0.749020
vn -0.157132 0.077167 0.984558
v -0.047541 0.374753 0.621583 0.749020 0.749020 0.749020
vn -0.296848 -0.187886 0.936259
v -0.245110 0.801756 0.665056 0.749020 0.749020 0.749020
vn -0.437895 -0.204174 0.875535
v -0.383452 1.187680 0.709054 0.749020 0.749020 0.749020
vn -0.273210 -0.216657 -0.937239
v -0.531779 1.659180 -0.112274 0.749020 0.749020 0.749020
vn -0.761611 -0.036265 0.647019
v -0.575711 1.467150 0.614775 0.749020 0.749020 0.749020
vn 0.100890 -0.162568 0.981526
v 0.105420 0.847822 0.700950 0.749020 0.749020 0.749020
vn 0.273071 0.013329 0.961902
v 0.182081 0.445193 0.615558 0.749020 0.749020 0.749020
vn -0.008540 0.497579 -0.867377
v 0.016085 0.143368 -0.495517 0.749020 0.749020 0.749020
vn 0.291148 0.810489 -0.508271
v 0.300911 0.260464 -0.201538 0.749020 0.749020 0.749020
vn 0.687014 0.726640 0.002500
v 0.628235 0.258136 0.227598 0.749020 0.749020 0.749020
vn -0.483712 -0.416680 -0.769675
v -0.446588 0.036710 -0.389831 0.749020 0.749020 0.749020
vn 0.843305 0.420638 0.334516
v 0.436605 0.474297 0.488379 0.749020 0.749020 0.749020
vn -0.118769 0.039774 0.992125
v -0.189370 1.591720 0.823489 0.749020 0.749020 0.749020
vn -0.759660 0.271316 0.591020
v -0.566248 1.742680 0.548965 0.749020 0.749020 0.749020
vn -0.670718 -0.425618 0.607442
v -0.668463 0.047152 0.512349 0.749020 0.749020 0.749020
vn 0.014467 -0.520530 0.853721
v 0.038958 0.095991 0.731659 0.749020 0.749020 0.749020
vn 0.368130 -0.375244 -0.850690
v 0.268482 1.101400 0.172622 0.749020 0.749020 0.749020
vn 0.497518 0.685444 0.531641
v 0.457845 1.966200 0.522638 0.749020 0.749020 0.749020
vn 0.988959 -0.144155 -0.034344
v 0.379505 2.737450 0.368487 0.749020 0.749020 0.749020
vn 0.827399 0.075154 -0.556563
v 0.342811 2.930030 0.001882 0.749020 0.749020 0.749020
vn 0.180623 -0.234724 -0.955134
v -0.241762 1.517890 0.037124 0.749020 0.749020 0.749020
vn 0.855833 -0.315153 -0.410156
v 0.839842 0.035689 -0.120668 0.749020 0.749020 0.749020
vn 0.701689 -0.449152 0.553077
v 0.695666 0.045962 0.488864 0.749020 0.749020 0.749020
vn 0.222911 0.074111 -0.972018
v -0.359459 1.865610 -0.055063 0.749020 0.749020 0.749020
vn -0.904791 -0.407314 0.124290
v -0.585319 1.199190 0.509464 0.749020 0.749020 0.749020
vn -0.223808 -0.604797 -0.764284
v -0.436895 1.497250 0.014019 0.749020 0.749020 0.749020
vn -0.388525 0.044087 -0.920383
v -0.114806 0.706097 0.250378 0.749020 0.749020 0.749020
vn 0.732166 0.675596 -0.086616
v 0.703311 1.981400 0.180782 0.749020 0.749020 0.749020
vn 0.753817 0.230037 0.615502
v 0.286144 2.950630 0.722723 0.749020 0.749020 0.749020
vn 0.983498 -0.170323 -0.061016
v 0.260762 2.409470 0.164229 0.749020 0.749020 0.749020
vn -0.006593 -0.148847 -0.988838
v 0.011161 1.790290 0.072777 0.749020 0.749020 0.749020
vn -0.067673 -0.209902 -0.975378
v 0.079076 1.418280 0.078059 0.749020 0.749020 0.749020
vn -0.914736 0.401339 -0.046747
v -0.404279 0.471129 0.447044 0.749020 0.749020 0.749020
vn -0.571970 0.216874 0.791085
v -0.389213 0.333668 0.523497 0.749020 0.749020 0.749020
vn -0.995164 -0.008006 0.097898
v -0.385282 0.627452 0.520213 0.749020 0.749020 0.749020
vn -0.378038 -0.396429 -0.836619
v -0.274513 1.136820 0.164954 0.749020 0.749020 0.749020
vn 0.951234 -0.137498 -0.276131
v 0.818481 1.647700 0.136412 0.749020 0.749020 0.749020
vn 0.712530 0.657156 0.245860
v 0.151611 2.094640 0.409217 0.749020 0.749020 0.749020
vn -0.088641 -0.732768 0.674680
v -0.000645 2.213630 0.837870 0.749020 0.749020 0.749020
vn 0.425339 -0.147868 0.892873
v 0.122656 2.457400 0.885400 0.749020 0.749020 0.749020
vn 0.920700 -0.279415 0.272469
v 0.303069 2.478980 0.658131 0.749020 0.749020 0.749020
vn 0.109412 -0.465905 -0.878044
v 0.434901 1.515560 -0.019313 0.749020 0.749020 0.749020
vn 0.710134 -0.545208 0.445487
v 0.171537 2.281890 0.751570 0.749020 0.749020 0.749020
vn 0.758720 0.180680 0.625858
v 0.107081 2.124870 0.474062 0.749020 0.749020 0.749020
vn 0.318363 0.186687 -0.929405
v 0.500193 1.824360 -0.098873 0.749020 0.749020 0.749020
vn 0.723844 0.488769 -0.486985
v 0.257636 2.148260 0.093471 0.749020 0.749020 0.749020
vn 0.978414 0.088497 0.186745
v 0.375648 2.909590 0.518054 0.749020 0.749020 0.749020
vn 0.276598 0.161059 0.947393
v 0.101122 2.802970 0.883398 0.749020 0.749020 0.749020
vn 0.642974 0.070478 -0.762639
v 0.269910 0.604663 0.407963 0.749020 0.749020 0.749020
vn 0.157064 0.012895 0.987504
v 0.160889 1.566950 0.814625 0.749020 0.749020 0.749020
vn -0.967096 -0.097221 -0.235101
v -0.812197 1.667990 0.153781 0.749020 0.749020 0.749020
# 102 vertices, 0 vertices normals


usemtl material_0
vt 0.000000 0.000000
f 1/1/1 75/1/75 2/1/2
f 83/1/83 68/1/68 87/1/87
f 2/1/2 97/1/97 1/1/1
f 33/1/33 9/1/9 8/1/8
f 70/1/70 95/1/95 81/1/81
f 12/1/12 10/1/10 16/1/16
f 16/1/16 17/1/17 12/1/12
f 11/1/11 13/1/13 12/1/12
f 12/1/12 13/1/13 14/1/14
f 14/1/14 10/1/10 12/1/12
f 19/1/19 15/1/15 14/1/14
f 16/1/16 10/1/10 15/1/15
f 13/1/13 11/1/11 18/1/18
f 15/1/15 20/1/20 16/1/16
f 21/1/21 11/1/11 17/1/17
f 21/1/21 22/1/22 11/1/11
f 22/1/22 71/1/71 18/1/18
f 14/1/14 13/1/13 30/1/30
f 16/1/16 20/1/20 17/1/17
f 17/1/17 24/1/24 21/1/21
f 29/1/29 22/1/22 21/1/21
f 29/1/29 71/1/71 22/1/22
f 18/1/18 38/1/38 13/1/13
f 38/1/38 30/1/30 13/1/13
f 30/1/30 19/1/19 14/1/14
f 48/1/48 25/1/25 19/1/19
f 25/1/25 15/1/15 19/1/19
f 27/1/27 20/1/20 15/1/15
f 37/1/37 17/1/17 20/1/20
f 28/1/28 29/1/29 21/1/21
f 38/1/38 18/1/18 71/1/71
f 30/1/30 48/1/48 19/1/19
f 5/1/5 25/1/25 48/1/48
f 5/1/5 31/1/31 25/1/25
f 25/1/25 23/1/23 15/1/15
f 24/1/24 17/1/17 37/1/37
f 28/1/28 21/1/21 24/1/24
f 48/1/48 3/1/3 5/1/5
f 3/1/3 4/1/4 5/1/5
f 31/1/31 5/1/5 39/1/39
f 34/1/34 100/1/100 63/1/63
f 35/1/35 42/1/42 36/1/36
f 45/1/45 36/1/36 43/1/43
f 67/1/67 43/1/43 44/1/44
f 66/1/66 45/1/45 43/1/43
f 34/1/34 46/1/46 100/1/100
f 8/1/8 32/1/32 101/1/101
f 23/1/23 26/1/26 15/1/15
f 27/1/27 15/1/15 26/1/26
f 28/1/28 24/1/24 37/1/37
f 28/1/28 98/1/98 29/1/29
f 29/1/29 98/1/98 70/1/70
f 70/1/70 71/1/71 29/1/29
f 38/1/38 2/1/2 30/1/30
f 30/1/30 2/1/2 48/1/48
f 3/1/3 102/1/102 4/1/4
f 39/1/39 65/1/65 40/1/40
f 64/1/64 32/1/32 40/1/40
f 101/1/101 57/1/57 41/1/41
f 43/1/43 36/1/36 62/1/62
f 67/1/67 66/1/66 43/1/43
f 35/1/35 78/1/78 34/1/34
f 46/1/46 34/1/34 68/1/68
f 47/1/47 33/1/33 46/1/46
f 33/1/33 47/1/47 9/1/9
f 9/1/9 69/1/69 8/1/8
f 31/1/31 95/1/95 25/1/25
f 99/1/99 20/1/20 27/1/27
f 99/1/99 37/1/37 20/1/20
f 37/1/37 99/1/99 80/1/80
f 80/1/80 28/1/28 37/1/37
f 38/1/38 71/1/71 81/1/81
f 2/1/2 75/1/75 48/1/48
f 48/1/48 75/1/75 3/1/3
f 75/1/75 55/1/55 3/1/3
f 72/1/72 77/1/77 55/1/55
f 76/1/76 77/1/77 87/1/87
f 61/1/61 73/1/73 49/1/49
f 62/1/62 44/1/44 43/1/43
f 60/1/60 73/1/73 50/1/50
f 60/1/60 49/1/49 73/1/73
f 51/1/51 58/1/58 67/1/67
f 58/1/58 51/1/51 63/1/63
f 54/1/54 56/1/56 76/1/76
f 55/1/55 102/1/102 3/1/3
f 102/1/102 77/1/77 76/1/76
f 76/1/76 56/1/56 102/1/102
f 40/1/40 54/1/54 64/1/64
f 54/1/54 57/1/57 64/1/64
f 58/1/58 46/1/46 41/1/41
f 34/1/34 63/1/63 61/1/61
f 61/1/61 60/1/60 34/1/34
f 59/1/59 42/1/42 60/1/60
f 62/1/62 36/1/36 59/1/59
f 50/1/50 59/1/59 60/1/60
f 52/1/52 58/1/58 57/1/57
f 52/1/52 57/1/57 53/1/53
f 53/1/53 57/1/57 54/1/54
f 77/1/77 102/1/102 55/1/55
f 63/1/63 46/1/46 58/1/58
f 63/1/63 51/1/51 61/1/61
f 62/1/62 59/1/59 50/1/50
f 60/1/60 61/1/61 49/1/49
f 41/1/41 57/1/57 58/1/58
f 54/1/54 40/1/40 56/1/56
f 59/1/59 36/1/36 42/1/42
f 64/1/64 57/1/57 101/1/101
f 65/1/65 56/1/56 40/1/40
f 56/1/56 65/1/65 102/1/102
f 66/1/66 67/1/67 85/1/85
f 66/1/66 85/1/85 45/1/45
f 36/1/36 84/1/84 35/1/35
f 9/1/9 79/1/79 69/1/69
f 69/1/69 32/1/32 8/1/8
f 95/1/95 31/1/31 32/1/32
f 90/1/90 23/1/23 25/1/25
f 90/1/90 26/1/26 23/1/23
f 27/1/27 26/1/26 99/1/99
f 98/1/98 28/1/28 80/1/80
f 2/1/2 38/1/38 97/1/97
f 97/1/97 7/1/7 1/1/1
f 7/1/7 96/1/96 1/1/1
f 96/1/96 82/1/82 1/1/1
f 87/1/87 78/1/78 76/1/76
f 84/1/84 85/1/85 86/1/86
f 85/1/85 67/1/67 52/1/52
f 51/1/51 67/1/67 74/1/74
f 85/1/85 53/1/53 86/1/86
f 86/1/86 76/1/76 78/1/78
f 87/1/87 77/1/77 72/1/72
f 82/1/82 72/1/72 75/1/75
f 1/1/1 82/1/82 75/1/75
f 72/1/72 55/1/55 75/1/75
f 76/1/76 86/1/86 54/1/54
f 61/1/61 51/1/51 74/1/74
f 61/1/61 74/1/74 73/1/73
f 50/1/50 44/1/44 62/1/62
f 44/1/44 50/1/50 73/1/73
f 67/1/67 58/1/58 52/1/52
f 52/1/52 53/1/53 85/1/85
f 53/1/53 54/1/54 86/1/86
f 74/1/74 44/1/44 73/1/73
f 45/1/45 84/1/84 36/1/36
f 35/1/35 86/1/86 78/1/78
f 78/1/78 68/1/68 34/1/34
f 68/1/68 47/1/47 46/1/46
f 69/1/69 95/1/95 32/1/32
f 80/1/80 92/1/92 98/1/98
f 92/1/92 70/1/70 98/1/98
f 70/1/70 81/1/81 71/1/71
f 85/1/85 84/1/84 45/1/45
f 67/1/67 44/1/44 74/1/74
f 72/1/72 83/1/83 87/1/87
f 72/1/72 82/1/82 83/1/83
f 84/1/84 86/1/86 35/1/35
f 68/1/68 78/1/78 87/1/87
f 47/1/47 68/1/68 93/1/93
f 88/1/88 9/1/9 47/1/47
f 95/1/95 90/1/90 25/1/25
f 90/1/90 91/1/91 26/1/26
f 92/1/92 80/1/80 91/1/91
f 97/1/97 38/1/38 81/1/81
f 96/1/96 93/1/93 82/1/82
f 93/1/93 83/1/83 82/1/82
f 83/1/83 93/1/93 68/1/68
f 88/1/88 47/1/47 93/1/93
f 93/1/93 6/1/6 88/1/88
f 89/1/89 69/1/69 79/1/79
f 95/1/95 69/1/69 89/1/89
f 90/1/90 95/1/95 94/1/94
f 94/1/94 92/1/92 91/1/91
f 91/1/91 90/1/90 94/1/94
f 70/1/70 92/1/92 95/1/95
f 95/1/95 89/1/89 81/1/81
f 89/1/89 79/1/79 7/1/7
f 6/1/6 96/1/96 7/1/7
f 6/1/6 93/1/93 96/1/96
f 79/1/79 9/1/9 88/1/88
f 7/1/7 79/1/79 88/1/88
f 7/1/7 88/1/88 6/1/6
f 97/1/97 89/1/89 7/1/7
f 94/1/94 95/1/95 92/1/92
f 97/1/97 81/1/81 89/1/89
f 99/1/99 91/1/91 80/1/80
f 91/1/91 99/1/99 26/1/26
f 35/1/35 60/1/60 42/1/42
f 46/1/46 63/1/63 100/1/100
f 41/1/41 46/1/46 33/1/33
f 41/1/41 33/1/33 101/1/101
f 64/1/64 101/1/101 32/1/32
f 40/1/40 32/1/32 31/1/31
f 31/1/31 39/1/39 40/1/40
f 39/1/39 5/1/5 4/1/4
f 4/1/4 65/1/65 39/1/39
f 65/1/65 4/1/4 102/1/102
f 33/1/33 8/1/8 101/1/101
f 35/1/35 34/1/34 60/1/60
f 11/1/11 22/1/22 18/1/18
f 11/1/11 12/1/12 17/1/17
f 14/1/14 15/1/15 10/1/10
# 200 faces, 1 coords texture

# End of File
